<svg width="145" height="38" viewBox="0 0 145 38" fill="none" xmlns="http://www.w3.org/2000/svg">
<g filter="url(#filter0_dd_39_467)">
<g clip-path="url(#clip0_39_467)">
<rect x="3" y="2" width="32" height="32" rx="8" fill="white"/>
<rect x="3" y="2" width="32" height="32" rx="8" fill="url(#paint0_linear_39_467)"/>
<path fill-rule="evenodd" clip-rule="evenodd" d="M19 4.03882C11.2895 4.03882 5.03885 10.2894 5.03885 18C5.03885 25.7105 11.2895 31.9612 19 31.9612C26.7106 31.9612 32.9612 25.7105 32.9612 18C32.9612 10.2894 26.7106 4.03882 19 4.03882ZM4.96118 18C4.96118 10.2466 11.2466 3.96115 19 3.96115C26.7535 3.96115 33.0389 10.2466 33.0389 18C33.0389 25.7534 26.7535 32.0388 19 32.0388C11.2466 32.0388 4.96118 25.7534 4.96118 18Z" fill="#D0D5DD"/>
<path fill-rule="evenodd" clip-rule="evenodd" d="M19 14.0779C16.8338 14.0779 15.0777 15.834 15.0777 18.0002C15.0777 20.1665 16.8338 21.9225 19 21.9225C21.1662 21.9225 22.9223 20.1665 22.9223 18.0002C22.9223 15.834 21.1662 14.0779 19 14.0779ZM15 18.0002C15 15.7911 16.7909 14.0002 19 14.0002C21.2091 14.0002 23 15.7911 23 18.0002C23 20.2094 21.2091 22.0002 19 22.0002C16.7909 22.0002 15 20.2094 15 18.0002Z" fill="#D0D5DD"/>
<path fill-rule="evenodd" clip-rule="evenodd" d="M19 15.3201C17.5201 15.3201 16.3204 16.5198 16.3204 17.9997C16.3204 19.4796 17.5201 20.6793 19 20.6793C20.4799 20.6793 21.6796 19.4796 21.6796 17.9997C21.6796 16.5198 20.4799 15.3201 19 15.3201ZM16.2427 17.9997C16.2427 16.4769 17.4772 15.2424 19 15.2424C20.5228 15.2424 21.7573 16.4769 21.7573 17.9997C21.7573 19.5225 20.5228 20.757 19 20.757C17.4772 20.757 16.2427 19.5225 16.2427 17.9997Z" fill="#D0D5DD"/>
<path d="M18.9612 2H19.0389V34H18.9612V2Z" fill="#D0D5DD"/>
<path d="M35 17.9609L35 18.0386L3 18.0386L3 17.9609L35 17.9609Z" fill="#D0D5DD"/>
<path d="M29.6019 2H29.6796V34H29.6019V2Z" fill="#D0D5DD"/>
<path d="M13.6407 2H13.7184V34H13.6407V2Z" fill="#D0D5DD"/>
<path d="M24.2816 2H24.3592V34H24.2816V2Z" fill="#D0D5DD"/>
<path d="M8.32037 2H8.39804V34H8.32037V2Z" fill="#D0D5DD"/>
<path d="M35 28.6016L35 28.6792L3 28.6792L3 28.6016L35 28.6016Z" fill="#D0D5DD"/>
<path d="M35 12.6406L35 12.7183L3 12.7183L3 12.6406L35 12.6406Z" fill="#D0D5DD"/>
<path d="M35 23.2812L35 23.3589L3 23.3589L3 23.2812L35 23.2812Z" fill="#D0D5DD"/>
<path d="M35 7.32031L35 7.39798L3 7.39798L3 7.32031L35 7.32031Z" fill="#D0D5DD"/>
<g filter="url(#filter1_dd_39_467)">
<circle cx="19" cy="18" r="8" fill="#FF4405"/>
</g>
<g filter="url(#filter2_b_39_467)">
<path d="M3 18H35V21.2C35 25.6804 35 27.9206 34.1281 29.6319C33.3611 31.1372 32.1372 32.3611 30.6319 33.1281C28.9206 34 26.6804 34 22.2 34H15.8C11.3196 34 9.07937 34 7.36808 33.1281C5.86278 32.3611 4.63893 31.1372 3.87195 29.6319C3 27.9206 3 25.6804 3 21.2V18Z" fill="white" fill-opacity="0.2"/>
</g>
</g>
<rect x="3.1" y="2.1" width="31.8" height="31.8" rx="7.9" stroke="#D0D5DD" stroke-width="0.2"/>
</g>
<path d="M52.44 25V10.94H54.34L55.16 13.66V25H52.44ZM62.16 25L53.82 14.2L54.34 10.94L62.68 21.74L62.16 25ZM62.16 25L61.38 22.36V10.94H64.12V25H62.16ZM71.2313 25.2C70.2579 25.2 69.3779 24.98 68.5913 24.54C67.8179 24.0867 67.1979 23.48 66.7313 22.72C66.2779 21.9467 66.0513 21.0867 66.0513 20.14C66.0513 19.1933 66.2779 18.3467 66.7313 17.6C67.1846 16.84 67.8046 16.24 68.5913 15.8C69.3779 15.3467 70.2513 15.12 71.2113 15.12C72.1979 15.12 73.0779 15.3467 73.8513 15.8C74.6379 16.24 75.2579 16.84 75.7113 17.6C76.1646 18.3467 76.3913 19.1933 76.3913 20.14C76.3913 21.0867 76.1646 21.9467 75.7113 22.72C75.2579 23.48 74.6379 24.0867 73.8513 24.54C73.0779 24.98 72.2046 25.2 71.2313 25.2ZM71.2113 22.76C71.7046 22.76 72.1379 22.6533 72.5113 22.44C72.8979 22.2133 73.1913 21.9067 73.3913 21.52C73.6046 21.12 73.7113 20.6667 73.7113 20.16C73.7113 19.6533 73.6046 19.2067 73.3913 18.82C73.1779 18.4333 72.8846 18.1333 72.5113 17.92C72.1379 17.6933 71.7046 17.58 71.2113 17.58C70.7313 17.58 70.3046 17.6933 69.9313 17.92C69.5579 18.1333 69.2646 18.4333 69.0513 18.82C68.8379 19.2067 68.7313 19.6533 68.7313 20.16C68.7313 20.6667 68.8379 21.12 69.0513 21.52C69.2646 21.9067 69.5579 22.2133 69.9313 22.44C70.3046 22.6533 70.7313 22.76 71.2113 22.76ZM79.2636 25V11.32H81.8836V25H79.2636ZM77.0036 17.64V15.34H84.1436V17.64H77.0036ZM90.0027 25.2C88.9893 25.2 88.0893 24.9867 87.3027 24.56C86.516 24.12 85.8893 23.52 85.4227 22.76C84.9693 22 84.7427 21.1333 84.7427 20.16C84.7427 19.2 84.9627 18.3467 85.4027 17.6C85.856 16.84 86.4693 16.24 87.2427 15.8C88.016 15.3467 88.876 15.12 89.8227 15.12C90.756 15.12 91.576 15.3333 92.2827 15.76C93.0027 16.1733 93.5627 16.7467 93.9627 17.48C94.376 18.2 94.5827 19.02 94.5827 19.94C94.5827 20.1133 94.5693 20.2933 94.5427 20.48C94.5293 20.6533 94.496 20.8533 94.4427 21.08L86.3227 21.1V19.14L93.2227 19.12L92.1627 19.94C92.136 19.3667 92.0293 18.8867 91.8427 18.5C91.6693 18.1133 91.4093 17.82 91.0627 17.62C90.7293 17.4067 90.316 17.3 89.8227 17.3C89.3027 17.3 88.8493 17.42 88.4627 17.66C88.076 17.8867 87.776 18.2133 87.5627 18.64C87.3627 19.0533 87.2627 19.5467 87.2627 20.12C87.2627 20.7067 87.3693 21.22 87.5827 21.66C87.8093 22.0867 88.1293 22.42 88.5427 22.66C88.956 22.8867 89.436 23 89.9827 23C90.476 23 90.9227 22.92 91.3227 22.76C91.7227 22.5867 92.0693 22.3333 92.3627 22L93.9027 23.54C93.436 24.0867 92.8627 24.5 92.1827 24.78C91.516 25.06 90.7893 25.2 90.0027 25.2ZM97.2486 25V14.3C97.2486 13.5267 97.4153 12.8467 97.7486 12.26C98.0819 11.66 98.5553 11.1867 99.1686 10.84C99.7819 10.4933 100.502 10.32 101.329 10.32C101.955 10.32 102.495 10.4267 102.949 10.64C103.402 10.8533 103.809 11.1467 104.169 11.52L102.509 13.2C102.362 13.0533 102.202 12.94 102.029 12.86C101.855 12.78 101.635 12.74 101.369 12.74C100.889 12.74 100.515 12.8733 100.249 13.14C99.9953 13.3933 99.8686 13.76 99.8686 14.24V25H97.2486ZM95.0086 17.64V15.34H102.729V17.64H95.0086ZM107.153 25.08L103.113 15.34H105.953L108.633 22.78H107.673L110.453 15.34H113.313L109.013 25.06L107.153 25.08ZM104.473 29.04L107.413 22.82L109.013 25.06L107.253 29.04H104.473Z" fill="#101828"/>
<defs>
<filter id="filter0_dd_39_467" x="0" y="0" width="38" height="38" filterUnits="userSpaceOnUse" color-interpolation-filters="sRGB">
<feFlood flood-opacity="0" result="BackgroundImageFix"/>
<feColorMatrix in="SourceAlpha" type="matrix" values="0 0 0 0 0 0 0 0 0 0 0 0 0 0 0 0 0 0 127 0" result="hardAlpha"/>
<feOffset dy="1"/>
<feGaussianBlur stdDeviation="1"/>
<feColorMatrix type="matrix" values="0 0 0 0 0.0627451 0 0 0 0 0.0941176 0 0 0 0 0.156863 0 0 0 0.06 0"/>
<feBlend mode="normal" in2="BackgroundImageFix" result="effect1_dropShadow_39_467"/>
<feColorMatrix in="SourceAlpha" type="matrix" values="0 0 0 0 0 0 0 0 0 0 0 0 0 0 0 0 0 0 127 0" result="hardAlpha"/>
<feOffset dy="1"/>
<feGaussianBlur stdDeviation="1.5"/>
<feColorMatrix type="matrix" values="0 0 0 0 0.0627451 0 0 0 0 0.0941176 0 0 0 0 0.156863 0 0 0 0.1 0"/>
<feBlend mode="normal" in2="effect1_dropShadow_39_467" result="effect2_dropShadow_39_467"/>
<feBlend mode="normal" in="SourceGraphic" in2="effect2_dropShadow_39_467" result="shape"/>
</filter>
<filter id="filter1_dd_39_467" x="8" y="8" width="22" height="22" filterUnits="userSpaceOnUse" color-interpolation-filters="sRGB">
<feFlood flood-opacity="0" result="BackgroundImageFix"/>
<feColorMatrix in="SourceAlpha" type="matrix" values="0 0 0 0 0 0 0 0 0 0 0 0 0 0 0 0 0 0 127 0" result="hardAlpha"/>
<feOffset dy="1"/>
<feGaussianBlur stdDeviation="1"/>
<feColorMatrix type="matrix" values="0 0 0 0 0.0627451 0 0 0 0 0.0941176 0 0 0 0 0.156863 0 0 0 0.06 0"/>
<feBlend mode="normal" in2="BackgroundImageFix" result="effect1_dropShadow_39_467"/>
<feColorMatrix in="SourceAlpha" type="matrix" values="0 0 0 0 0 0 0 0 0 0 0 0 0 0 0 0 0 0 127 0" result="hardAlpha"/>
<feOffset dy="1"/>
<feGaussianBlur stdDeviation="1.5"/>
<feColorMatrix type="matrix" values="0 0 0 0 0.0627451 0 0 0 0 0.0941176 0 0 0 0 0.156863 0 0 0 0.1 0"/>
<feBlend mode="normal" in2="effect1_dropShadow_39_467" result="effect2_dropShadow_39_467"/>
<feBlend mode="normal" in="SourceGraphic" in2="effect2_dropShadow_39_467" result="shape"/>
</filter>
<filter id="filter2_b_39_467" x="-2" y="13" width="42" height="26" filterUnits="userSpaceOnUse" color-interpolation-filters="sRGB">
<feFlood flood-opacity="0" result="BackgroundImageFix"/>
<feGaussianBlur in="BackgroundImageFix" stdDeviation="2.5"/>
<feComposite in2="SourceAlpha" operator="in" result="effect1_backgroundBlur_39_467"/>
<feBlend mode="normal" in="SourceGraphic" in2="effect1_backgroundBlur_39_467" result="shape"/>
</filter>
<linearGradient id="paint0_linear_39_467" x1="19" y1="2" x2="19" y2="34" gradientUnits="userSpaceOnUse">
<stop stop-color="white"/>
<stop offset="1" stop-color="#D0D5DD"/>
</linearGradient>
<clipPath id="clip0_39_467">
<rect x="3" y="2" width="32" height="32" rx="8" fill="white"/>
</clipPath>
</defs>
</svg>
