<svg width="144" height="185" viewBox="0 0 144 185" fill="none" xmlns="http://www.w3.org/2000/svg">
<circle cx="72" cy="71.9585" r="71.5" fill="#FFE6D5"/>
<rect x="42.9951" y="69.4585" width="72" height="100" rx="8" transform="rotate(2.5 42.9951 69.4585)" fill="#FAF6F6"/>
<rect x="3.45789" y="65.5001" width="72" height="100" rx="8" transform="rotate(-7.5 3.45789 65.5001)" fill="#FAFAFA"/>
<rect x="2.33591" y="64.6392" width="74" height="102" rx="9" transform="rotate(-7.5 2.33591 64.6392)" stroke="#F24E1E" stroke-opacity="0.39" stroke-width="2"/>
<path d="M4.5021 73.4316C3.92539 69.0512 7.00897 65.0326 11.3894 64.4559L66.9104 57.1464C71.2908 56.5697 75.3094 59.6533 75.8861 64.0338L77.844 78.9054L6.45999 88.3033L4.5021 73.4316Z" fill="#EEEEEE"/>
<rect x="90.3662" y="59.1015" width="3" height="10" rx="1.5" transform="rotate(82.5 90.3662 59.1015)" fill="#F24E1E" fill-opacity="0.46"/>
<rect x="62.9696" y="42.5358" width="3" height="10" rx="1.5" transform="rotate(-7.5 62.9696 42.5358)" fill="#F24E1E" fill-opacity="0.46"/>
<rect x="80.5472" y="45.2648" width="3" height="10" rx="1.5" transform="rotate(37.5 80.5472 45.2648)" fill="#F24E1E" fill-opacity="0.46"/>
<rect x="13.9222" y="91.3554" width="58" height="4" rx="2" transform="rotate(-7.5 13.9222 91.3554)" fill="#F24E1E" fill-opacity="0.43"/>
<rect x="16.5327" y="111.184" width="58" height="4" rx="2" transform="rotate(-7.5 16.5327 111.184)" fill="#F24E1E" fill-opacity="0.43"/>
<rect x="19.1433" y="131.013" width="58" height="4" rx="2" transform="rotate(-7.5 19.1433 131.013)" fill="#F24E1E" fill-opacity="0.43"/>
<rect x="14.9664" y="99.287" width="21" height="4" rx="2" transform="rotate(-7.5 14.9664 99.287)" fill="#EEEEEE"/>
<rect x="17.5769" y="119.116" width="21" height="4" rx="2" transform="rotate(-7.5 17.5769 119.116)" fill="#EEEEEE"/>
<rect x="20.1875" y="138.945" width="21" height="4" rx="2" transform="rotate(-7.5 20.1875 138.945)" fill="#EEEEEE"/>
</svg>
